<svg viewBox="0 0 66 42" fill="none" xmlns="http://www.w3.org/2000/svg">
  <rect style="width: 100%; height: 100%;" rx="8" fill="#32FF00" />
  <path
    d="M11.896 10H3.24363C3.28929 11.0598 3.31228 12.051 3.31228 12.9738C3.31228 13.897 3.28929 14.8883 3.24363 15.9477H5.25954V11.6548H9.88013V15.9477H11.896C11.8559 15.0248 11.8359 14.0336 11.8359 12.9738C11.8359 11.9145 11.8559 10.9231 11.896 10Z"
    fill="#1A1A1A"
  />
  <path
    d="M19.3371 10C19.0226 10.7429 18.5437 11.8612 18.2778 12.4537C18.0119 13.0463 17.6959 13.7194 17.3299 14.4732C17.0095 15.1286 16.5421 15.6541 15.9275 16.0501C15.3127 16.446 14.5391 16.6359 13.607 16.6195C13.487 16.1444 13.3911 15.7852 13.3197 15.5422C13.2481 15.2993 13.1524 15.0494 13.0324 14.7926C13.3696 14.8636 13.6813 14.8991 13.9674 14.8991C14.2475 14.8991 14.4992 14.8636 14.7222 14.7926C14.3105 13.7823 13.5755 12.1847 12.5176 10H14.6536L16.0175 13.064C16.0175 13.064 17.1868 10.3279 17.2613 10H19.3371Z"
    fill="#1A1A1A"
  />
  <path
    d="M35.6027 10H33.5868V14.2928H28.624V10H26.7625V14.2928H21.8076V10H19.7918C19.8375 11.0598 19.8604 12.051 19.8604 12.9738C19.8604 13.897 19.8375 14.8883 19.7918 15.9477H35.6027C35.5625 15.0248 35.5426 14.0336 35.5426 12.9738C35.5426 11.9145 35.5625 10.9231 35.6027 10Z"
    fill="#1A1A1A"
  />
  <path
    d="M42.6941 13.9775C42.8743 14.297 43.05 14.689 43.2216 15.1531C43.3645 15.5299 43.4789 15.795 43.5647 15.9477H41.0429C41.0086 15.8548 40.9626 15.6938 40.9055 15.4644C40.8482 15.2133 40.7867 15.0028 40.7211 14.8336C40.6553 14.6644 40.5624 14.5169 40.4423 14.3912C40.2479 14.1946 40.0061 14.0675 39.7175 14.0102C39.4287 13.9529 39.0326 13.9243 38.5295 13.9243V15.9477H36.3935C36.4392 14.8883 36.4621 13.897 36.4621 12.9738C36.4621 12.051 36.4392 11.0598 36.3935 10H38.5295V12.1384C38.5866 12.1437 38.6723 12.1465 38.7868 12.1465C39.6789 11.3055 40.3422 10.5899 40.7769 10H43.556L40.8885 12.5397C41.2659 12.6818 41.609 12.8703 41.9178 13.1049C42.2551 13.3672 42.514 13.658 42.6941 13.9775Z"
    fill="#1A1A1A"
  />
  <path
    d="M46.6219 10.0082L46.4761 14.6043L48.5604 10.0082H51.7172C51.677 10.9314 51.6572 11.9199 51.6572 12.9738C51.6572 14.0336 51.677 15.0248 51.7172 15.9477H49.5126L49.667 11.4748L47.5912 15.9477H44.5202C44.5659 14.8883 44.5889 13.897 44.5889 12.9738C44.5889 12.0565 44.5659 11.068 44.5202 10.0082H46.6219Z"
    fill="#1A1A1A"
  />
  <path
    d="M63 10H60.9842V12.2283H54.4192V10H52.4034C52.4489 11.0598 52.4719 12.051 52.4719 12.9738C52.4719 13.897 52.4489 14.8883 52.4034 15.9477H54.4192V13.7194H60.9842V15.9477H63C62.96 15.0248 62.9399 14.0336 62.9399 12.9738C62.9399 11.9145 62.96 10.9231 63 10Z"
    fill="#1A1A1A"
  />
  <path
    d="M3.91787 23.1472C3.30591 22.6227 3 21.8746 3 20.9023C3 19.9249 3.30591 19.1521 3.91787 18.584C4.52969 18.016 5.48189 17.7321 6.77427 17.7321C8.58137 17.7321 9.79081 18.3246 10.4028 19.5098C9.88821 19.6791 9.28472 19.9331 8.59286 20.2715C8.42697 19.9658 8.16529 19.7391 7.80799 19.5917C7.4505 19.4442 7.08591 19.3704 6.7143 19.3704C6.16532 19.3704 5.75638 19.5085 5.48761 19.7842C5.21869 20.0599 5.08446 20.4 5.08446 20.804C5.08446 21.2411 5.22885 21.5975 5.51765 21.8733C5.80629 22.149 6.24808 22.2869 6.84298 22.2869C7.31755 22.2869 7.69496 22.2118 7.97522 22.0616C8.25535 21.9114 8.46129 21.6724 8.59286 21.3448C9.06172 21.5852 9.66215 21.8556 10.3942 22.1558C10.1083 22.8168 9.63072 23.2782 8.96175 23.5403C8.29258 23.8024 7.56354 23.9335 6.77427 23.9335C5.48189 23.9335 4.52969 23.6715 3.91787 23.1472Z"
    fill="#1A1A1A"
  />
  <path
    d="M17.3896 21.8814C17.5698 22.2009 17.7455 22.5929 17.9172 23.057C18.06 23.4338 18.1745 23.6988 18.2602 23.8516H15.7384C15.7041 23.7588 15.6582 23.5976 15.601 23.3683C15.5438 23.1172 15.4822 22.9068 15.4166 22.7375C15.3508 22.5683 15.2579 22.4208 15.1378 22.2951C14.9434 22.0985 14.7016 21.9716 14.413 21.9142C14.1242 21.8568 13.7281 21.8282 13.225 21.8282V23.8516H11.089C11.1347 22.7922 11.1576 21.8008 11.1576 20.8777C11.1576 19.9549 11.1347 18.9637 11.089 17.9039H13.225V20.0423C13.2821 20.0476 13.3678 20.0504 13.4823 20.0504C14.3744 19.2093 15.0377 18.4938 15.4724 17.9039H18.2516L15.584 20.4436C15.9614 20.5857 16.3045 20.7741 16.6133 21.0088C16.9506 21.2711 17.2095 21.5618 17.3896 21.8814Z"
    fill="#1A1A1A"
  />
  <path
    d="M23.4325 21.4022C23.2151 20.8286 22.5575 19.1492 22.5575 19.1492C22.5575 19.1492 22.0629 20.3972 21.6741 21.4022H23.4325ZM24.359 23.8516C24.2503 23.5403 24.1045 23.15 23.9215 22.6802H21.185L20.7562 23.8516H18.6031L21.0049 17.9039H24.1616L26.5807 23.8516H24.359Z"
    fill="#1A1A1A"
  />
  <path
    d="M30.7409 20.4191C30.2548 20.4191 29.8874 20.4041 29.6387 20.374C29.39 20.3441 29.2169 20.296 29.1197 20.2306C29.0224 20.1651 28.9739 20.0696 28.9739 19.9438C28.9739 19.8238 29.0196 19.7309 29.1111 19.6653C29.2025 19.5998 29.3741 19.5534 29.6257 19.5261C29.8773 19.4987 30.249 19.4852 30.7409 19.4852H34.5592V20.4191H30.7409ZM36.5836 17.9039H34.5592L30.1406 17.9121C28.9854 17.9121 28.179 18.0898 27.7215 18.4447C27.2638 18.7998 27.0352 19.2802 27.0352 19.8865C27.0352 20.3616 27.1567 20.7631 27.3998 21.0907C27.6429 21.4185 28.0588 21.6561 28.6479 21.8036C28.0483 22.6034 27.1125 23.8516 27.1125 23.8516H29.4457C29.6973 23.4038 30.0946 22.7702 30.638 21.9511H34.5592V23.8516H36.5836C36.5435 22.9287 36.5235 21.9375 36.5235 20.8777C36.5235 19.8184 36.5435 18.827 36.5836 17.9039Z"
    fill="#1A1A1A"
  />
  <path
    d="M9.54424 30.0297C9.72439 30.3493 9.90015 30.7412 10.0718 31.2053C10.2146 31.5822 10.3291 31.8472 10.4149 32H7.89298C7.8587 31.9072 7.81279 31.746 7.75568 31.5168C7.69843 31.2655 7.63688 31.0551 7.57123 30.8859C7.50544 30.7166 7.41254 30.5692 7.29245 30.4435C7.098 30.2469 6.85629 30.1199 6.56765 30.0625C6.27885 30.0052 5.88274 29.9765 5.37963 29.9765V32H3.24363C3.28929 30.9405 3.31228 29.9493 3.31228 29.0262C3.31228 28.1034 3.28929 27.112 3.24363 26.0524H5.37963V28.1906C5.43673 28.196 5.52244 28.1987 5.6369 28.1987C6.52908 27.3578 7.19234 26.6423 7.62701 26.0524H10.4062L7.73856 28.5921C8.11599 28.7342 8.45912 28.9225 8.76794 29.1573C9.10532 29.4194 9.36408 29.7103 9.54424 30.0297Z"
    fill="#1A1A1A"
  />
  <path
    d="M15.5871 29.5505C15.3697 28.977 14.7122 27.2977 14.7122 27.2977C14.7122 27.2977 14.2175 28.5457 13.8287 29.5505H15.5871ZM16.5136 32C16.405 31.6886 16.259 31.2983 16.0761 30.8286H13.3397L12.9108 32H10.7578L13.1596 26.0524H16.3164L18.7353 32H16.5136Z"
    fill="#1A1A1A"
  />
  <path
    d="M29.2741 28.7312C29.1797 28.8242 29.0139 28.8884 28.7766 28.9237C28.5394 28.9593 28.1832 28.977 27.7086 28.977H21.3001V27.6826H27.7086C28.1947 27.6826 28.5564 27.6991 28.7938 27.7317C29.031 27.7646 29.1941 27.826 29.2827 27.9162C29.3712 28.0063 29.4157 28.1413 29.4157 28.3217C29.4157 28.5019 29.3685 28.6384 29.2741 28.7312ZM30.6852 26.6382C30.2392 26.2531 29.4471 26.0606 28.3091 26.0606H27.3608L21.3001 26.0524H19.1899C19.2355 27.112 19.2585 28.1034 19.2585 29.0262C19.2585 29.9493 19.2355 30.9405 19.1899 32H21.3001V30.5581H28.3091C29.0926 30.5581 29.7073 30.4638 30.1535 30.2755C30.5995 30.0871 30.9111 29.8251 31.0885 29.4891C31.2656 29.1532 31.3542 28.7449 31.3542 28.2643C31.3542 27.5652 31.1313 27.0232 30.6852 26.6382Z"
    fill="#1A1A1A"
  />
  <path
    d="M39.4452 27.7728C38.5473 27.7456 37.6752 27.7291 36.8289 27.7237V32H34.6844V27.7237C33.8321 27.7291 32.963 27.7456 32.0766 27.7728V26.0524H39.4452V27.7728Z"
    fill="#1A1A1A"
  />
  <path
    d="M44.1177 29.5505C43.9003 28.977 43.2426 27.2977 43.2426 27.2977C43.2426 27.2977 42.748 28.5457 42.3592 29.5505H44.1177ZM45.0441 32C44.9354 31.6886 44.7896 31.2983 44.6067 30.8286H41.8702L41.4413 32H39.2883L41.69 26.0524H44.8468L47.2659 32H45.0441Z"
    fill="#1A1A1A"
  />
</svg>
